<mxfile host="app.diagrams.net" agent="Mozilla/5.0 (Windows NT 10.0; Win64; x64) AppleWebKit/537.36 (KHTML, like Gecko) Chrome/135.0.0.0 Safari/537.36" version="26.2.9" pages="2">
  <diagram name="Página-1" id="7QrRLFPtVmv0LntT_hHe">
    <mxGraphModel dx="1428" dy="1946" grid="1" gridSize="10" guides="1" tooltips="1" connect="1" arrows="1" fold="1" page="1" pageScale="1" pageWidth="827" pageHeight="1169" background="light-dark(#ffffff, #121212)" math="0" shadow="1">
      <root>
        <mxCell id="0" />
        <mxCell id="1" parent="0" />
        <mxCell id="ZcK-xEs8XKB6jnWGEz-K-20" value="&lt;font style=&quot;vertical-align: inherit;&quot;&gt;&lt;font style=&quot;vertical-align: inherit;&quot;&gt;dividir pagamento (50% antes, 50% depois)&lt;/font&gt;&lt;/font&gt;" style="ellipse;whiteSpace=wrap;html=1;" parent="1" vertex="1">
          <mxGeometry x="220" y="60" width="120" height="75" as="geometry" />
        </mxCell>
        <mxCell id="ZcK-xEs8XKB6jnWGEz-K-3" value="&lt;font style=&quot;vertical-align: inherit;&quot;&gt;&lt;font style=&quot;vertical-align: inherit;&quot;&gt;cliente&lt;/font&gt;&lt;/font&gt;" style="shape=umlActor;verticalLabelPosition=bottom;verticalAlign=top;html=1;outlineConnect=0;" parent="1" vertex="1">
          <mxGeometry x="130" y="-385" width="50" height="90" as="geometry" />
        </mxCell>
        <mxCell id="ZcK-xEs8XKB6jnWGEz-K-4" value="&lt;font style=&quot;vertical-align: inherit;&quot;&gt;&lt;font style=&quot;vertical-align: inherit;&quot;&gt;verificar disponibilidade de dados&lt;/font&gt;&lt;/font&gt;" style="ellipse;whiteSpace=wrap;html=1;" parent="1" vertex="1">
          <mxGeometry x="280" y="-450" width="100" height="65" as="geometry" />
        </mxCell>
        <mxCell id="ZcK-xEs8XKB6jnWGEz-K-5" value="&lt;font style=&quot;vertical-align: inherit;&quot;&gt;&lt;font style=&quot;vertical-align: inherit;&quot;&gt;realizar agendamento&lt;/font&gt;&lt;/font&gt;" style="ellipse;whiteSpace=wrap;html=1;" parent="1" vertex="1">
          <mxGeometry x="280" y="-370" width="100" height="65" as="geometry" />
        </mxCell>
        <mxCell id="ZcK-xEs8XKB6jnWGEz-K-6" value="&lt;font style=&quot;vertical-align: inherit;&quot;&gt;&lt;font style=&quot;vertical-align: inherit;&quot;&gt;&lt;font style=&quot;vertical-align: inherit;&quot;&gt;&lt;font style=&quot;vertical-align: inherit;&quot;&gt;&lt;font style=&quot;vertical-align: inherit;&quot;&gt;&lt;font style=&quot;vertical-align: inherit;&quot;&gt;cancelar e/ou remarcar&amp;nbsp;&lt;/font&gt;&lt;/font&gt;&lt;/font&gt;&lt;/font&gt;&lt;/font&gt;&lt;/font&gt;" style="ellipse;whiteSpace=wrap;html=1;" parent="1" vertex="1">
          <mxGeometry x="280" y="-260" width="100" height="65" as="geometry" />
        </mxCell>
        <mxCell id="ZcK-xEs8XKB6jnWGEz-K-7" value="" style="endArrow=none;html=1;rounded=0;" parent="1" edge="1">
          <mxGeometry width="50" height="50" relative="1" as="geometry">
            <mxPoint x="190" y="-390" as="sourcePoint" />
            <mxPoint x="280" y="-420" as="targetPoint" />
          </mxGeometry>
        </mxCell>
        <mxCell id="ZcK-xEs8XKB6jnWGEz-K-8" value="" style="endArrow=none;html=1;rounded=0;" parent="1" edge="1">
          <mxGeometry width="50" height="50" relative="1" as="geometry">
            <mxPoint x="190" y="-360" as="sourcePoint" />
            <mxPoint x="280" y="-340" as="targetPoint" />
          </mxGeometry>
        </mxCell>
        <mxCell id="ZcK-xEs8XKB6jnWGEz-K-9" value="" style="endArrow=none;html=1;rounded=0;entryX=0.023;entryY=0.71;entryDx=0;entryDy=0;entryPerimeter=0;" parent="1" target="ZcK-xEs8XKB6jnWGEz-K-6" edge="1">
          <mxGeometry width="50" height="50" relative="1" as="geometry">
            <mxPoint x="190" y="-330" as="sourcePoint" />
            <mxPoint x="270" y="-300" as="targetPoint" />
          </mxGeometry>
        </mxCell>
        <mxCell id="ZcK-xEs8XKB6jnWGEz-K-10" value="&lt;font style=&quot;vertical-align: inherit;&quot;&gt;&lt;font style=&quot;vertical-align: inherit;&quot;&gt;organizador&amp;nbsp;&lt;/font&gt;&lt;/font&gt;" style="shape=umlActor;verticalLabelPosition=bottom;verticalAlign=top;html=1;outlineConnect=0;" parent="1" vertex="1">
          <mxGeometry x="680" y="-385" width="50" height="90" as="geometry" />
        </mxCell>
        <mxCell id="ZcK-xEs8XKB6jnWGEz-K-11" value="&lt;font style=&quot;vertical-align: inherit;&quot;&gt;&lt;font style=&quot;vertical-align: inherit;&quot;&gt;cadastrar evento&amp;nbsp;&lt;/font&gt;&lt;/font&gt;" style="ellipse;whiteSpace=wrap;html=1;" parent="1" vertex="1">
          <mxGeometry x="655" y="-510" width="100" height="65" as="geometry" />
        </mxCell>
        <mxCell id="ZcK-xEs8XKB6jnWGEz-K-12" value="&lt;font style=&quot;vertical-align: inherit;&quot;&gt;&lt;font style=&quot;vertical-align: inherit;&quot;&gt;acessar calendário do evento&lt;/font&gt;&lt;/font&gt;" style="ellipse;whiteSpace=wrap;html=1;" parent="1" vertex="1">
          <mxGeometry x="530" y="-460" width="100" height="65" as="geometry" />
        </mxCell>
        <mxCell id="ZcK-xEs8XKB6jnWGEz-K-13" value="&lt;font style=&quot;vertical-align: inherit;&quot;&gt;&lt;font style=&quot;vertical-align: inherit;&quot;&gt;vender ingresso&amp;nbsp;&lt;/font&gt;&lt;/font&gt;" style="ellipse;whiteSpace=wrap;html=1;" parent="1" vertex="1">
          <mxGeometry x="510" y="-385" width="100" height="65" as="geometry" />
        </mxCell>
        <mxCell id="ZcK-xEs8XKB6jnWGEz-K-14" value="&lt;font style=&quot;vertical-align: inherit;&quot;&gt;&lt;font style=&quot;vertical-align: inherit;&quot;&gt;acessar lista de participantes&lt;/font&gt;&lt;/font&gt;" style="ellipse;whiteSpace=wrap;html=1;" parent="1" vertex="1">
          <mxGeometry x="500" y="-310" width="100" height="65" as="geometry" />
        </mxCell>
        <mxCell id="ZcK-xEs8XKB6jnWGEz-K-15" value="&lt;font style=&quot;vertical-align: inherit;&quot;&gt;&lt;font style=&quot;vertical-align: inherit;&quot;&gt;&lt;font style=&quot;vertical-align: inherit;&quot;&gt;&lt;font style=&quot;vertical-align: inherit;&quot;&gt;confirmar presença dos convidados&lt;/font&gt;&lt;/font&gt;&lt;/font&gt;&lt;/font&gt;" style="ellipse;whiteSpace=wrap;html=1;" parent="1" vertex="1">
          <mxGeometry x="580" y="-230" width="100" height="65" as="geometry" />
        </mxCell>
        <mxCell id="ZcK-xEs8XKB6jnWGEz-K-17" value="&lt;font style=&quot;vertical-align: inherit;&quot;&gt;&lt;font style=&quot;vertical-align: inherit;&quot;&gt;&lt;font style=&quot;vertical-align: inherit;&quot;&gt;&lt;font style=&quot;vertical-align: inherit;&quot;&gt;coordenador (thiago)&lt;/font&gt;&lt;/font&gt;&lt;/font&gt;&lt;/font&gt;" style="shape=umlActor;verticalLabelPosition=bottom;verticalAlign=top;html=1;outlineConnect=0;" parent="1" vertex="1">
          <mxGeometry x="120" y="-40" width="50" height="90" as="geometry" />
        </mxCell>
        <mxCell id="ZcK-xEs8XKB6jnWGEz-K-18" value="&lt;font style=&quot;vertical-align: inherit;&quot;&gt;&lt;font style=&quot;vertical-align: inherit;&quot;&gt;validar cadastro do evento&lt;/font&gt;&lt;/font&gt;" style="ellipse;whiteSpace=wrap;html=1;" parent="1" vertex="1">
          <mxGeometry x="210" y="-140" width="100" height="65" as="geometry" />
        </mxCell>
        <mxCell id="ZcK-xEs8XKB6jnWGEz-K-19" value="&lt;font style=&quot;vertical-align: inherit;&quot;&gt;&lt;font style=&quot;vertical-align: inherit;&quot;&gt;&lt;font style=&quot;vertical-align: inherit;&quot;&gt;&lt;font style=&quot;vertical-align: inherit;&quot;&gt;definir forma de pagamento (boleto ou pix)&amp;nbsp;&lt;/font&gt;&lt;/font&gt;&lt;/font&gt;&lt;/font&gt;" style="ellipse;whiteSpace=wrap;html=1;" parent="1" vertex="1">
          <mxGeometry x="240" y="-40" width="100" height="65" as="geometry" />
        </mxCell>
        <mxCell id="ZcK-xEs8XKB6jnWGEz-K-21" value="" style="endArrow=none;html=1;rounded=0;" parent="1" source="ZcK-xEs8XKB6jnWGEz-K-17" edge="1">
          <mxGeometry width="50" height="50" relative="1" as="geometry">
            <mxPoint x="170" y="-50" as="sourcePoint" />
            <mxPoint x="210" y="-110" as="targetPoint" />
          </mxGeometry>
        </mxCell>
        <mxCell id="ZcK-xEs8XKB6jnWGEz-K-22" value="" style="endArrow=none;html=1;rounded=0;" parent="1" source="ZcK-xEs8XKB6jnWGEz-K-17" edge="1">
          <mxGeometry width="50" height="50" relative="1" as="geometry">
            <mxPoint x="180" y="-10" as="sourcePoint" />
            <mxPoint x="240" y="-20" as="targetPoint" />
          </mxGeometry>
        </mxCell>
        <mxCell id="ZcK-xEs8XKB6jnWGEz-K-23" value="" style="endArrow=none;html=1;rounded=0;" parent="1" source="ZcK-xEs8XKB6jnWGEz-K-17" edge="1">
          <mxGeometry width="50" height="50" relative="1" as="geometry">
            <mxPoint x="180" y="30" as="sourcePoint" />
            <mxPoint x="240" y="70" as="targetPoint" />
          </mxGeometry>
        </mxCell>
        <mxCell id="ZcK-xEs8XKB6jnWGEz-K-24" value="" style="endArrow=none;html=1;rounded=0;" parent="1" edge="1">
          <mxGeometry width="50" height="50" relative="1" as="geometry">
            <mxPoint x="620" y="-230" as="sourcePoint" />
            <mxPoint x="670" y="-300" as="targetPoint" />
          </mxGeometry>
        </mxCell>
        <mxCell id="ZcK-xEs8XKB6jnWGEz-K-25" value="" style="endArrow=none;html=1;rounded=0;" parent="1" edge="1">
          <mxGeometry width="50" height="50" relative="1" as="geometry">
            <mxPoint x="600" y="-280" as="sourcePoint" />
            <mxPoint x="680" y="-320" as="targetPoint" />
          </mxGeometry>
        </mxCell>
        <mxCell id="ZcK-xEs8XKB6jnWGEz-K-26" value="" style="endArrow=none;html=1;rounded=0;" parent="1" edge="1">
          <mxGeometry width="50" height="50" relative="1" as="geometry">
            <mxPoint x="610" y="-350" as="sourcePoint" />
            <mxPoint x="680" y="-330" as="targetPoint" />
          </mxGeometry>
        </mxCell>
        <mxCell id="ZcK-xEs8XKB6jnWGEz-K-27" value="" style="endArrow=none;html=1;rounded=0;" parent="1" edge="1">
          <mxGeometry width="50" height="50" relative="1" as="geometry">
            <mxPoint x="710" y="-395" as="sourcePoint" />
            <mxPoint x="720" y="-445" as="targetPoint" />
          </mxGeometry>
        </mxCell>
        <mxCell id="ZcK-xEs8XKB6jnWGEz-K-28" value="" style="endArrow=none;html=1;rounded=0;" parent="1" edge="1">
          <mxGeometry width="50" height="50" relative="1" as="geometry">
            <mxPoint x="620" y="-410" as="sourcePoint" />
            <mxPoint x="680" y="-380" as="targetPoint" />
          </mxGeometry>
        </mxCell>
        <mxCell id="ZcK-xEs8XKB6jnWGEz-K-29" value="&lt;font style=&quot;vertical-align: inherit;&quot;&gt;&lt;font style=&quot;vertical-align: inherit;&quot;&gt;profissional do evento&lt;/font&gt;&lt;/font&gt;" style="shape=umlActor;verticalLabelPosition=bottom;verticalAlign=top;html=1;outlineConnect=0;" parent="1" vertex="1">
          <mxGeometry x="685" y="-40" width="45" height="90" as="geometry" />
        </mxCell>
        <mxCell id="ZcK-xEs8XKB6jnWGEz-K-30" value="&lt;font style=&quot;vertical-align: inherit;&quot;&gt;&lt;font style=&quot;vertical-align: inherit;&quot;&gt;acompanhar lista de participantes&amp;nbsp;&lt;/font&gt;&lt;/font&gt;" style="ellipse;whiteSpace=wrap;html=1;" parent="1" vertex="1">
          <mxGeometry x="540" y="-100" width="100" height="65" as="geometry" />
        </mxCell>
        <mxCell id="ZcK-xEs8XKB6jnWGEz-K-31" value="&lt;font style=&quot;vertical-align: inherit;&quot;&gt;&lt;font style=&quot;vertical-align: inherit;&quot;&gt;controlar presença durante o evento&amp;nbsp;&lt;/font&gt;&lt;/font&gt;" style="ellipse;whiteSpace=wrap;html=1;" parent="1" vertex="1">
          <mxGeometry x="540" y="10" width="100" height="65" as="geometry" />
        </mxCell>
        <mxCell id="ZcK-xEs8XKB6jnWGEz-K-33" value="" style="endArrow=none;html=1;rounded=0;" parent="1" edge="1">
          <mxGeometry width="50" height="50" relative="1" as="geometry">
            <mxPoint x="640" y="-60" as="sourcePoint" />
            <mxPoint x="680" y="-30" as="targetPoint" />
          </mxGeometry>
        </mxCell>
        <mxCell id="ZcK-xEs8XKB6jnWGEz-K-34" value="" style="endArrow=none;html=1;rounded=0;" parent="1" edge="1">
          <mxGeometry width="50" height="50" relative="1" as="geometry">
            <mxPoint x="640" y="40" as="sourcePoint" />
            <mxPoint x="680" y="10" as="targetPoint" />
          </mxGeometry>
        </mxCell>
        <mxCell id="ZcK-xEs8XKB6jnWGEz-K-46" value="&lt;font style=&quot;vertical-align: inherit;&quot;&gt;&lt;font style=&quot;vertical-align: inherit;&quot;&gt;&lt;font style=&quot;vertical-align: inherit;&quot;&gt;&lt;font style=&quot;vertical-align: inherit;&quot;&gt;&lt;font style=&quot;vertical-align: inherit;&quot;&gt;&lt;font style=&quot;vertical-align: inherit;&quot;&gt;associar mestre de cerimônias&lt;/font&gt;&lt;/font&gt;&lt;/font&gt;&lt;/font&gt;&lt;/font&gt;&lt;/font&gt;" style="ellipse;whiteSpace=wrap;html=1;" parent="1" vertex="1">
          <mxGeometry x="70" y="-165" width="100" height="70" as="geometry" />
        </mxCell>
        <mxCell id="ZcK-xEs8XKB6jnWGEz-K-47" value="" style="endArrow=none;html=1;rounded=0;" parent="1" edge="1">
          <mxGeometry width="50" height="50" relative="1" as="geometry">
            <mxPoint x="130" y="-50" as="sourcePoint" />
            <mxPoint x="110.00000000000018" y="-95" as="targetPoint" />
            <Array as="points" />
          </mxGeometry>
        </mxCell>
      </root>
    </mxGraphModel>
  </diagram>
  <diagram id="vUXuyKOD5J1mUs2CgZeK" name="Página-2">
    <mxGraphModel dx="1428" dy="777" grid="1" gridSize="10" guides="1" tooltips="1" connect="1" arrows="1" fold="1" page="1" pageScale="1" pageWidth="827" pageHeight="1169" math="0" shadow="0">
      <root>
        <mxCell id="0" />
        <mxCell id="1" parent="0" />
        <mxCell id="LF0iZc-DLFgmaUrgK986-9" value="Usuario" style="swimlane;fontStyle=1;align=center;verticalAlign=top;childLayout=stackLayout;horizontal=1;startSize=26;horizontalStack=0;resizeParent=1;resizeParentMax=0;resizeLast=0;collapsible=1;marginBottom=0;whiteSpace=wrap;html=1;" vertex="1" parent="1">
          <mxGeometry x="120" y="40" width="160" height="114" as="geometry" />
        </mxCell>
        <mxCell id="LF0iZc-DLFgmaUrgK986-10" value="- nome:string&lt;div&gt;- email:string&lt;/div&gt;&lt;div&gt;- senha: string&lt;/div&gt;" style="text;strokeColor=none;fillColor=none;align=left;verticalAlign=top;spacingLeft=4;spacingRight=4;overflow=hidden;rotatable=0;points=[[0,0.5],[1,0.5]];portConstraint=eastwest;whiteSpace=wrap;html=1;" vertex="1" parent="LF0iZc-DLFgmaUrgK986-9">
          <mxGeometry y="26" width="160" height="54" as="geometry" />
        </mxCell>
        <mxCell id="LF0iZc-DLFgmaUrgK986-11" value="" style="line;strokeWidth=1;fillColor=none;align=left;verticalAlign=middle;spacingTop=-1;spacingLeft=3;spacingRight=3;rotatable=0;labelPosition=right;points=[];portConstraint=eastwest;strokeColor=inherit;" vertex="1" parent="LF0iZc-DLFgmaUrgK986-9">
          <mxGeometry y="80" width="160" height="8" as="geometry" />
        </mxCell>
        <mxCell id="LF0iZc-DLFgmaUrgK986-12" value="+autenticar():bool" style="text;strokeColor=none;fillColor=none;align=left;verticalAlign=top;spacingLeft=4;spacingRight=4;overflow=hidden;rotatable=0;points=[[0,0.5],[1,0.5]];portConstraint=eastwest;whiteSpace=wrap;html=1;" vertex="1" parent="LF0iZc-DLFgmaUrgK986-9">
          <mxGeometry y="88" width="160" height="26" as="geometry" />
        </mxCell>
        <mxCell id="LF0iZc-DLFgmaUrgK986-21" value="Evento" style="swimlane;fontStyle=1;align=center;verticalAlign=top;childLayout=stackLayout;horizontal=1;startSize=26;horizontalStack=0;resizeParent=1;resizeParentMax=0;resizeLast=0;collapsible=1;marginBottom=0;whiteSpace=wrap;html=1;" vertex="1" parent="1">
          <mxGeometry x="510" y="40" width="160" height="200" as="geometry" />
        </mxCell>
        <mxCell id="LF0iZc-DLFgmaUrgK986-22" value="- tipo:string&lt;div&gt;-data:date&amp;nbsp;&lt;/div&gt;&lt;div&gt;-horario: time&lt;/div&gt;&lt;div&gt;-local:string&lt;/div&gt;&lt;div&gt;-numeroparticipantes:int&lt;/div&gt;" style="text;strokeColor=none;fillColor=none;align=left;verticalAlign=top;spacingLeft=4;spacingRight=4;overflow=hidden;rotatable=0;points=[[0,0.5],[1,0.5]];portConstraint=eastwest;whiteSpace=wrap;html=1;" vertex="1" parent="LF0iZc-DLFgmaUrgK986-21">
          <mxGeometry y="26" width="160" height="114" as="geometry" />
        </mxCell>
        <mxCell id="LF0iZc-DLFgmaUrgK986-23" value="" style="line;strokeWidth=1;fillColor=none;align=left;verticalAlign=middle;spacingTop=-1;spacingLeft=3;spacingRight=3;rotatable=0;labelPosition=right;points=[];portConstraint=eastwest;strokeColor=inherit;" vertex="1" parent="LF0iZc-DLFgmaUrgK986-21">
          <mxGeometry y="140" width="160" height="10" as="geometry" />
        </mxCell>
        <mxCell id="LF0iZc-DLFgmaUrgK986-24" value="+agendarevento(): bool&lt;div&gt;+ cancelarEvento(): bool&lt;/div&gt;" style="text;strokeColor=none;fillColor=none;align=left;verticalAlign=top;spacingLeft=4;spacingRight=4;overflow=hidden;rotatable=0;points=[[0,0.5],[1,0.5]];portConstraint=eastwest;whiteSpace=wrap;html=1;" vertex="1" parent="LF0iZc-DLFgmaUrgK986-21">
          <mxGeometry y="150" width="160" height="50" as="geometry" />
        </mxCell>
        <mxCell id="LF0iZc-DLFgmaUrgK986-25" value="organizador" style="swimlane;fontStyle=1;align=center;verticalAlign=top;childLayout=stackLayout;horizontal=1;startSize=26;horizontalStack=0;resizeParent=1;resizeParentMax=0;resizeLast=0;collapsible=1;marginBottom=0;whiteSpace=wrap;html=1;" vertex="1" parent="1">
          <mxGeometry x="40" y="280" width="160" height="60" as="geometry" />
        </mxCell>
        <mxCell id="LF0iZc-DLFgmaUrgK986-26" value="+ cadastrarEvento(): Bool&lt;div&gt;+gerenciarEvento(): Bool&lt;/div&gt;" style="text;strokeColor=none;fillColor=none;align=left;verticalAlign=top;spacingLeft=4;spacingRight=4;overflow=hidden;rotatable=0;points=[[0,0.5],[1,0.5]];portConstraint=eastwest;whiteSpace=wrap;html=1;" vertex="1" parent="LF0iZc-DLFgmaUrgK986-25">
          <mxGeometry y="26" width="160" height="34" as="geometry" />
        </mxCell>
        <mxCell id="LF0iZc-DLFgmaUrgK986-29" value="coordenador" style="swimlane;fontStyle=1;align=center;verticalAlign=top;childLayout=stackLayout;horizontal=1;startSize=26;horizontalStack=0;resizeParent=1;resizeParentMax=0;resizeLast=0;collapsible=1;marginBottom=0;whiteSpace=wrap;html=1;" vertex="1" parent="1">
          <mxGeometry x="220" y="280" width="160" height="60" as="geometry" />
        </mxCell>
        <mxCell id="LF0iZc-DLFgmaUrgK986-30" value="+ validarEvento(): Bool&lt;div&gt;+ definirPagamento(): Bool&lt;/div&gt;" style="text;strokeColor=none;fillColor=none;align=left;verticalAlign=top;spacingLeft=4;spacingRight=4;overflow=hidden;rotatable=0;points=[[0,0.5],[1,0.5]];portConstraint=eastwest;whiteSpace=wrap;html=1;" vertex="1" parent="LF0iZc-DLFgmaUrgK986-29">
          <mxGeometry y="26" width="160" height="34" as="geometry" />
        </mxCell>
        <mxCell id="LF0iZc-DLFgmaUrgK986-34" value="participantes" style="swimlane;fontStyle=1;align=center;verticalAlign=top;childLayout=stackLayout;horizontal=1;startSize=26;horizontalStack=0;resizeParent=1;resizeParentMax=0;resizeLast=0;collapsible=1;marginBottom=0;whiteSpace=wrap;html=1;" vertex="1" parent="1">
          <mxGeometry x="400" y="280" width="160" height="52" as="geometry" />
        </mxCell>
        <mxCell id="LF0iZc-DLFgmaUrgK986-35" value="+ confirmaPresenca(): Bool" style="text;strokeColor=none;fillColor=none;align=left;verticalAlign=top;spacingLeft=4;spacingRight=4;overflow=hidden;rotatable=0;points=[[0,0.5],[1,0.5]];portConstraint=eastwest;whiteSpace=wrap;html=1;" vertex="1" parent="LF0iZc-DLFgmaUrgK986-34">
          <mxGeometry y="26" width="160" height="26" as="geometry" />
        </mxCell>
        <mxCell id="LF0iZc-DLFgmaUrgK986-38" value="pagamento" style="swimlane;fontStyle=1;align=center;verticalAlign=top;childLayout=stackLayout;horizontal=1;startSize=26;horizontalStack=0;resizeParent=1;resizeParentMax=0;resizeLast=0;collapsible=1;marginBottom=0;whiteSpace=wrap;html=1;" vertex="1" parent="1">
          <mxGeometry x="580" y="280" width="160" height="130" as="geometry" />
        </mxCell>
        <mxCell id="LF0iZc-DLFgmaUrgK986-39" value="-valor:Double&lt;div&gt;- metodo: string&lt;/div&gt;&lt;div&gt;-status: string&lt;/div&gt;" style="text;strokeColor=none;fillColor=none;align=left;verticalAlign=top;spacingLeft=4;spacingRight=4;overflow=hidden;rotatable=0;points=[[0,0.5],[1,0.5]];portConstraint=eastwest;whiteSpace=wrap;html=1;" vertex="1" parent="LF0iZc-DLFgmaUrgK986-38">
          <mxGeometry y="26" width="160" height="54" as="geometry" />
        </mxCell>
        <mxCell id="LF0iZc-DLFgmaUrgK986-40" value="" style="line;strokeWidth=1;fillColor=none;align=left;verticalAlign=middle;spacingTop=-1;spacingLeft=3;spacingRight=3;rotatable=0;labelPosition=right;points=[];portConstraint=eastwest;strokeColor=inherit;" vertex="1" parent="LF0iZc-DLFgmaUrgK986-38">
          <mxGeometry y="80" width="160" height="8" as="geometry" />
        </mxCell>
        <mxCell id="LF0iZc-DLFgmaUrgK986-41" value="+Processarpagamento(): Bool" style="text;strokeColor=none;fillColor=none;align=left;verticalAlign=top;spacingLeft=4;spacingRight=4;overflow=hidden;rotatable=0;points=[[0,0.5],[1,0.5]];portConstraint=eastwest;whiteSpace=wrap;html=1;" vertex="1" parent="LF0iZc-DLFgmaUrgK986-38">
          <mxGeometry y="88" width="160" height="42" as="geometry" />
        </mxCell>
        <mxCell id="LF0iZc-DLFgmaUrgK986-43" value="credencial" style="swimlane;fontStyle=1;align=center;verticalAlign=top;childLayout=stackLayout;horizontal=1;startSize=26;horizontalStack=0;resizeParent=1;resizeParentMax=0;resizeLast=0;collapsible=1;marginBottom=0;whiteSpace=wrap;html=1;" vertex="1" parent="1">
          <mxGeometry x="390" y="410" width="160" height="104" as="geometry" />
        </mxCell>
        <mxCell id="LF0iZc-DLFgmaUrgK986-44" value="-nomeParticipante: string&lt;div&gt;-tipoCredencil: string&lt;/div&gt;" style="text;strokeColor=none;fillColor=none;align=left;verticalAlign=top;spacingLeft=4;spacingRight=4;overflow=hidden;rotatable=0;points=[[0,0.5],[1,0.5]];portConstraint=eastwest;whiteSpace=wrap;html=1;" vertex="1" parent="LF0iZc-DLFgmaUrgK986-43">
          <mxGeometry y="26" width="160" height="44" as="geometry" />
        </mxCell>
        <mxCell id="LF0iZc-DLFgmaUrgK986-45" value="" style="line;strokeWidth=1;fillColor=none;align=left;verticalAlign=middle;spacingTop=-1;spacingLeft=3;spacingRight=3;rotatable=0;labelPosition=right;points=[];portConstraint=eastwest;strokeColor=inherit;" vertex="1" parent="LF0iZc-DLFgmaUrgK986-43">
          <mxGeometry y="70" width="160" height="8" as="geometry" />
        </mxCell>
        <mxCell id="LF0iZc-DLFgmaUrgK986-46" value="+gerarCredencial(): Bool" style="text;strokeColor=none;fillColor=none;align=left;verticalAlign=top;spacingLeft=4;spacingRight=4;overflow=hidden;rotatable=0;points=[[0,0.5],[1,0.5]];portConstraint=eastwest;whiteSpace=wrap;html=1;" vertex="1" parent="LF0iZc-DLFgmaUrgK986-43">
          <mxGeometry y="78" width="160" height="26" as="geometry" />
        </mxCell>
        <mxCell id="LF0iZc-DLFgmaUrgK986-47" value="notificação" style="swimlane;fontStyle=1;align=center;verticalAlign=top;childLayout=stackLayout;horizontal=1;startSize=26;horizontalStack=0;resizeParent=1;resizeParentMax=0;resizeLast=0;collapsible=1;marginBottom=0;whiteSpace=wrap;html=1;" vertex="1" parent="1">
          <mxGeometry x="760" y="280" width="160" height="60" as="geometry" />
        </mxCell>
        <mxCell id="LF0iZc-DLFgmaUrgK986-48" value="+enviarEmail(): Bool&lt;div&gt;+enviarSMS(): Bool&lt;/div&gt;" style="text;strokeColor=none;fillColor=none;align=left;verticalAlign=top;spacingLeft=4;spacingRight=4;overflow=hidden;rotatable=0;points=[[0,0.5],[1,0.5]];portConstraint=eastwest;whiteSpace=wrap;html=1;" vertex="1" parent="LF0iZc-DLFgmaUrgK986-47">
          <mxGeometry y="26" width="160" height="34" as="geometry" />
        </mxCell>
        <mxCell id="LF0iZc-DLFgmaUrgK986-51" value="serviçosAdicionais" style="swimlane;fontStyle=1;align=center;verticalAlign=top;childLayout=stackLayout;horizontal=1;startSize=26;horizontalStack=0;resizeParent=1;resizeParentMax=0;resizeLast=0;collapsible=1;marginBottom=0;whiteSpace=wrap;html=1;" vertex="1" parent="1">
          <mxGeometry x="950" y="280" width="160" height="70" as="geometry" />
        </mxCell>
        <mxCell id="LF0iZc-DLFgmaUrgK986-52" value="-descriçao:string&lt;div&gt;-preço:Double&lt;/div&gt;" style="text;strokeColor=none;fillColor=none;align=left;verticalAlign=top;spacingLeft=4;spacingRight=4;overflow=hidden;rotatable=0;points=[[0,0.5],[1,0.5]];portConstraint=eastwest;whiteSpace=wrap;html=1;" vertex="1" parent="LF0iZc-DLFgmaUrgK986-51">
          <mxGeometry y="26" width="160" height="44" as="geometry" />
        </mxCell>
        <mxCell id="LF0iZc-DLFgmaUrgK986-55" value="" style="endArrow=none;html=1;rounded=0;entryX=0.488;entryY=1.115;entryDx=0;entryDy=0;entryPerimeter=0;exitX=0.55;exitY=-0.038;exitDx=0;exitDy=0;exitPerimeter=0;" edge="1" parent="1" source="LF0iZc-DLFgmaUrgK986-43" target="LF0iZc-DLFgmaUrgK986-35">
          <mxGeometry width="50" height="50" relative="1" as="geometry">
            <mxPoint x="440" y="510" as="sourcePoint" />
            <mxPoint x="490" y="460" as="targetPoint" />
          </mxGeometry>
        </mxCell>
        <mxCell id="LF0iZc-DLFgmaUrgK986-56" value="" style="endArrow=block;endSize=16;endFill=0;html=1;rounded=0;exitX=0.206;exitY=0.885;exitDx=0;exitDy=0;exitPerimeter=0;entryX=0.444;entryY=-0.05;entryDx=0;entryDy=0;entryPerimeter=0;" edge="1" parent="1" source="LF0iZc-DLFgmaUrgK986-12" target="LF0iZc-DLFgmaUrgK986-25">
          <mxGeometry width="160" relative="1" as="geometry">
            <mxPoint x="80" y="250" as="sourcePoint" />
            <mxPoint x="110" y="270" as="targetPoint" />
          </mxGeometry>
        </mxCell>
        <mxCell id="LF0iZc-DLFgmaUrgK986-57" value="" style="endArrow=block;endSize=16;endFill=0;html=1;rounded=0;exitX=0.744;exitY=1.192;exitDx=0;exitDy=0;exitPerimeter=0;entryX=0.356;entryY=-0.033;entryDx=0;entryDy=0;entryPerimeter=0;" edge="1" parent="1" source="LF0iZc-DLFgmaUrgK986-12" target="LF0iZc-DLFgmaUrgK986-29">
          <mxGeometry width="160" relative="1" as="geometry">
            <mxPoint x="270" y="230" as="sourcePoint" />
            <mxPoint x="210" y="160" as="targetPoint" />
          </mxGeometry>
        </mxCell>
        <mxCell id="LF0iZc-DLFgmaUrgK986-58" value="" style="endArrow=block;endSize=16;endFill=0;html=1;rounded=0;entryX=0.188;entryY=0;entryDx=0;entryDy=0;entryPerimeter=0;exitX=1.019;exitY=0.269;exitDx=0;exitDy=0;exitPerimeter=0;" edge="1" parent="1" source="LF0iZc-DLFgmaUrgK986-12" target="LF0iZc-DLFgmaUrgK986-34">
          <mxGeometry width="160" relative="1" as="geometry">
            <mxPoint x="310" y="141" as="sourcePoint" />
            <mxPoint x="290" y="130" as="targetPoint" />
          </mxGeometry>
        </mxCell>
        <mxCell id="LF0iZc-DLFgmaUrgK986-60" value="" style="endArrow=classic;html=1;rounded=0;entryX=0.633;entryY=0.933;entryDx=0;entryDy=0;entryPerimeter=0;exitX=-0.012;exitY=0.561;exitDx=0;exitDy=0;exitPerimeter=0;" edge="1" parent="1" source="LF0iZc-DLFgmaUrgK986-22" target="LF0iZc-DLFgmaUrgK986-64">
          <mxGeometry width="50" height="50" relative="1" as="geometry">
            <mxPoint x="420" y="110" as="sourcePoint" />
            <mxPoint x="500" y="140" as="targetPoint" />
          </mxGeometry>
        </mxCell>
        <mxCell id="LF0iZc-DLFgmaUrgK986-61" value="1" style="text;html=1;align=center;verticalAlign=middle;resizable=0;points=[];autosize=1;strokeColor=none;fillColor=none;" vertex="1" parent="1">
          <mxGeometry x="465" y="125" width="30" height="30" as="geometry" />
        </mxCell>
        <mxCell id="LF0iZc-DLFgmaUrgK986-64" value="1" style="text;html=1;align=center;verticalAlign=middle;resizable=0;points=[];autosize=1;strokeColor=none;fillColor=none;" vertex="1" parent="1">
          <mxGeometry x="295" y="258" width="30" height="30" as="geometry" />
        </mxCell>
        <mxCell id="LF0iZc-DLFgmaUrgK986-65" value="" style="endArrow=classic;html=1;rounded=0;entryX=0.833;entryY=0.733;entryDx=0;entryDy=0;entryPerimeter=0;exitX=0;exitY=0.5;exitDx=0;exitDy=0;" edge="1" parent="1" source="LF0iZc-DLFgmaUrgK986-24" target="LF0iZc-DLFgmaUrgK986-66">
          <mxGeometry width="50" height="50" relative="1" as="geometry">
            <mxPoint x="520" y="250" as="sourcePoint" />
            <mxPoint x="510" y="230" as="targetPoint" />
          </mxGeometry>
        </mxCell>
        <mxCell id="LF0iZc-DLFgmaUrgK986-66" value="1" style="text;html=1;align=center;verticalAlign=middle;resizable=0;points=[];autosize=1;strokeColor=none;fillColor=none;" vertex="1" parent="1">
          <mxGeometry x="445" y="258" width="30" height="30" as="geometry" />
        </mxCell>
        <mxCell id="LF0iZc-DLFgmaUrgK986-67" value="" style="endArrow=none;html=1;rounded=0;entryX=0.75;entryY=1.04;entryDx=0;entryDy=0;entryPerimeter=0;exitX=0.313;exitY=-0.023;exitDx=0;exitDy=0;exitPerimeter=0;" edge="1" parent="1" source="LF0iZc-DLFgmaUrgK986-38" target="LF0iZc-DLFgmaUrgK986-24">
          <mxGeometry width="50" height="50" relative="1" as="geometry">
            <mxPoint x="630" y="270" as="sourcePoint" />
            <mxPoint x="760" y="200" as="targetPoint" />
          </mxGeometry>
        </mxCell>
        <mxCell id="LF0iZc-DLFgmaUrgK986-68" value="1" style="text;html=1;align=center;verticalAlign=middle;resizable=0;points=[];autosize=1;strokeColor=none;fillColor=none;" vertex="1" parent="1">
          <mxGeometry x="610" y="238" width="30" height="30" as="geometry" />
        </mxCell>
        <mxCell id="LF0iZc-DLFgmaUrgK986-70" value="1" style="text;html=1;align=center;verticalAlign=middle;resizable=0;points=[];autosize=1;strokeColor=none;fillColor=none;" vertex="1" parent="1">
          <mxGeometry x="610" y="258" width="30" height="30" as="geometry" />
        </mxCell>
        <mxCell id="LF0iZc-DLFgmaUrgK986-71" value="1" style="text;html=1;align=center;verticalAlign=middle;resizable=0;points=[];autosize=1;strokeColor=none;fillColor=none;" vertex="1" parent="1">
          <mxGeometry x="455" y="328" width="30" height="30" as="geometry" />
        </mxCell>
        <mxCell id="LF0iZc-DLFgmaUrgK986-72" value="1" style="text;html=1;align=center;verticalAlign=middle;resizable=0;points=[];autosize=1;strokeColor=none;fillColor=none;" vertex="1" parent="1">
          <mxGeometry x="455" y="378" width="30" height="30" as="geometry" />
        </mxCell>
        <mxCell id="LF0iZc-DLFgmaUrgK986-73" value="" style="endArrow=classic;html=1;rounded=0;entryX=0.75;entryY=0;entryDx=0;entryDy=0;exitX=0.994;exitY=0.64;exitDx=0;exitDy=0;exitPerimeter=0;" edge="1" parent="1" source="LF0iZc-DLFgmaUrgK986-22" target="LF0iZc-DLFgmaUrgK986-47">
          <mxGeometry width="50" height="50" relative="1" as="geometry">
            <mxPoint x="870" y="110" as="sourcePoint" />
            <mxPoint x="890" y="170" as="targetPoint" />
          </mxGeometry>
        </mxCell>
        <mxCell id="LF0iZc-DLFgmaUrgK986-74" value="" style="endArrow=classic;html=1;rounded=0;entryX=0.588;entryY=0.029;entryDx=0;entryDy=0;entryPerimeter=0;exitX=1.063;exitY=0.035;exitDx=0;exitDy=0;exitPerimeter=0;" edge="1" parent="1" source="LF0iZc-DLFgmaUrgK986-22" target="LF0iZc-DLFgmaUrgK986-51">
          <mxGeometry width="50" height="50" relative="1" as="geometry">
            <mxPoint x="820" y="70" as="sourcePoint" />
            <mxPoint x="680" y="100" as="targetPoint" />
          </mxGeometry>
        </mxCell>
        <mxCell id="LF0iZc-DLFgmaUrgK986-75" value="1" style="text;html=1;align=center;verticalAlign=middle;resizable=0;points=[];autosize=1;strokeColor=none;fillColor=none;" vertex="1" parent="1">
          <mxGeometry x="685" y="78" width="30" height="30" as="geometry" />
        </mxCell>
        <mxCell id="LF0iZc-DLFgmaUrgK986-76" value="0" style="text;html=1;align=center;verticalAlign=middle;resizable=0;points=[];autosize=1;strokeColor=none;fillColor=none;" vertex="1" parent="1">
          <mxGeometry x="1005" y="258" width="30" height="30" as="geometry" />
        </mxCell>
        <mxCell id="LF0iZc-DLFgmaUrgK986-77" value="1" style="text;html=1;align=center;verticalAlign=middle;resizable=0;points=[];autosize=1;strokeColor=none;fillColor=none;" vertex="1" parent="1">
          <mxGeometry x="675" y="148" width="30" height="30" as="geometry" />
        </mxCell>
        <mxCell id="LF0iZc-DLFgmaUrgK986-78" value="1" style="text;html=1;align=center;verticalAlign=middle;resizable=0;points=[];autosize=1;strokeColor=none;fillColor=none;" vertex="1" parent="1">
          <mxGeometry x="825" y="248" width="30" height="30" as="geometry" />
        </mxCell>
      </root>
    </mxGraphModel>
  </diagram>
</mxfile>
